<svg width="30" height="30" viewBox="0 0 30 30" fill="none" xmlns="http://www.w3.org/2000/svg">
<rect width="30" height="30" rx="15" fill="#D8385E"/>
<path fill-rule="evenodd" clip-rule="evenodd" d="M7.74966 11.3045C6.53969 11.8353 7.39586 13.5153 8.60146 12.9436C9.59815 12.4712 8.96757 10.7702 7.74966 11.3045Z" fill="#FFBE40" stroke="#FFBE40" stroke-width="0.288" stroke-miterlimit="22.9256"/>
<path fill-rule="evenodd" clip-rule="evenodd" d="M14.3359 14.557C14.5263 14.8831 15.709 15.9805 16.0636 16.2051C16.3277 16.1012 18.4902 14.3473 20.3805 16.2689C22.3201 18.2407 20.4499 20.2307 20.327 20.5341C20.5595 20.8345 20.8552 21.1402 21.1132 21.4117C21.2405 21.5455 21.3582 21.6699 21.4896 21.8116L22.0007 22.2415C23.5583 21.4024 25.0016 17.2845 22.25 14.532C20.6697 12.9512 18.2023 12.3578 15.9545 13.3477C15.6044 13.5019 14.8083 13.9687 14.5353 14.2732C14.2929 14.5434 14.4766 14.2856 14.3359 14.557Z" fill="#FFBE40"/>
<path fill-rule="evenodd" clip-rule="evenodd" d="M16.5074 18.0991C16.0295 17.8533 14.7468 17.2254 14.2715 17.2164C13.7285 17.8958 13.6207 18.2375 12.746 18.5911C11.2135 19.2103 9.38773 18.5307 8.79089 16.9819C8.36551 15.8781 8.66029 15.5109 8.87066 14.557C8.58395 14.2885 6.9981 13.454 6.6541 13.3917C5.25387 15.6459 6.11785 19.2867 9.09123 20.7778C12.7346 22.605 16.4505 19.6018 16.5074 18.0991Z" fill="#FFBE40"/>
<path fill-rule="evenodd" clip-rule="evenodd" d="M11.583 17.3031C11.9176 17.166 13.1946 15.8898 13.3885 15.6639C13.259 15.2762 11.6546 13.236 13.5967 11.456C15.6345 9.58837 17.8549 11.6172 17.8563 11.6173C18.1276 11.6592 19.6317 10.3482 19.7885 10.1296C19.2055 8.70462 14.8441 6.89044 11.9756 9.52158C9.34173 11.9377 9.69221 15.5916 11.583 17.3031Z" fill="#FFBE40"/>
</svg>
