<?xml version="1.0" encoding="UTF-8"?>
<!DOCTYPE svg PUBLIC "-//W3C//DTD SVG 1.1//EN" "http://www.w3.org/Graphics/SVG/1.1/DTD/svg11.dtd">
<!-- Creator: CorelDRAW (Evaluation Version) -->
<svg xmlns="http://www.w3.org/2000/svg" xml:space="preserve" width="71.9606mm" height="71.9537mm" version="1.1" style="shape-rendering:geometricPrecision; text-rendering:geometricPrecision; image-rendering:optimizeQuality; fill-rule:evenodd; clip-rule:evenodd"
viewBox="0 0 3340.9 3340.58"
 xmlns:xlink="http://www.w3.org/1999/xlink"
 xmlns:xodm="http://www.corel.com/coreldraw/odm/2003">
 <defs>
  <style type="text/css">
   <![CDATA[
    .fil1 {fill:#FAF9F9}
    .fil0 {fill:#FFA449}
   ]]>
  </style>
 </defs>
 <g id="Layer_x0020_1">
  <metadata id="CorelCorpID_0Corel-Layer"/>
  <g id="_1380893696304">
   <path class="fil0" d="M2052.21 2658.44c-25.47,-30.35 -13.35,-213.96 -13.35,-264.01l0 -554.64c-0.07,-121.32 -12.24,-101.4 166.65,-101.4 203.69,0 183.81,-17.03 183.62,94.88 -0.21,119.56 10.11,798.87 -10.13,819.44 -24.02,17.77 -289.05,16.02 -326.8,5.73zm1288.69 -1089.97l0 198.79c-48.84,817.49 -697.8,1504.26 -1535.64,1571.11 -11.09,0.89 -22.15,1.56 -33.21,2.22l-197.08 0c-816.55,-48.6 -1507.97,-698.42 -1572.37,-1536.02 -1.03,-13.37 -1.88,-26.7 -2.6,-40.01l0 -185.05c20.66,-378.7 168.65,-727.74 421.75,-1021.04 285.89,-331.28 686.67,-514.88 1118.19,-552.26 917.07,-79.43 1725.73,614.04 1798.74,1529.12 0.88,11.07 1.56,22.11 2.22,33.14zm-2379.12 1084.35c-21.72,-30.63 -10.03,-660.9 -10.04,-793.46 -0,-45.65 -16.78,-116.1 34.55,-120.92 37.51,-3.52 289.99,-5.93 305.72,9.98 21.37,21.61 10.02,664.75 10.02,789.56 0,35.5 17.41,116.62 -29.5,124.62 -39.18,6.68 -288.15,6.65 -310.76,-9.78zm1492.3 -713.45c47.62,0 186.64,-14.8 217.39,15.15 11.12,33.1 10.02,472.64 -3.54,497.42 -33.08,20.59 -168.38,9.96 -216.11,9.96l2.26 -522.53zm-1781.2 512.64c-17.96,-32.9 -8.49,-305.76 -8.49,-364.27 0,-103.16 -15.59,-145.06 40.16,-148.53 55.6,-3.46 125.06,0.16 184.24,0.16l0.16 522.53c-47.79,0 -182.74,10.65 -216.07,-9.89zm691.91 -444.15l63.98 2.88c22.98,33.41 28.28,75.88 89.57,56.22 57.96,-18.6 2.24,-60.2 86.85,-60.2l130.51 0c86.55,0 27.6,47.15 92.32,61.8 59.39,13.44 60.98,-24.73 84.02,-59.91l64.04 -0.3 0.02 380.75 -31.69 1.82c-72.74,-3.55 -28.01,-68.55 -104.27,-64.5 -48.95,2.6 -41.19,31.38 -64.79,61.19 -333.62,21.12 -168.75,-38.58 -262.21,-59.38 -58.02,-12.92 -59.53,23.16 -85.1,58.84l-63.21 1.58 -0.02 -380.79zm1018.44 -422.44c-22.23,32.27 -106.25,16.89 -145.1,16.89 -223.02,0 -199.3,20.14 -199.28,-114.9 0.01,-125.68 -5.16,-769.96 2.68,-790.82 11.91,-31.68 112,-19.66 144.4,-19.66 231.01,0 203.2,-19.1 203.19,118.81 -0.01,130.59 7.71,761 -5.89,789.68zm-1425.68 0.19c-14.49,-31.3 -5.81,-552.13 -5.81,-633.27 0,-325.63 -46.29,-275.41 209.74,-275.41 32.84,0 125.58,-11.76 137.79,19.72 7.99,20.6 2.76,562.78 2.76,634.15 0,321.91 43.78,271.5 -205.81,271.5 -37.8,0 -116.87,14.65 -138.68,-16.7zm1494.34 -707.28c47.64,0 182.96,-10.63 216.07,9.91 13.51,24.8 14.61,464.63 3.43,497.39 -30.72,30.05 -169.67,15.24 -219.35,15.24l-0.15 -522.53zm-1782.52 507.45c-13.31,-39.79 -4.99,-297.7 -4.99,-361.67 0,-45.82 -22.29,-141.29 39.77,-145.95 54.2,-4.07 128.35,0.17 184.86,0.17l-2.24 522.53c-47.76,0 -186.38,14.82 -217.41,-15.08zm695.43 -439.26c132.69,-3.29 44.25,67.42 135.43,63.34 65.92,-2.95 27.82,-64.12 98.44,-64.12l143.55 -0c71.48,0 32.65,66.5 104.06,64.1 85,-2.86 1.5,-69.83 129.86,-62.98l-1.49 381.71c-129.64,2.27 -44.42,-68.1 -134.32,-63.39 -70.38,3.69 -20.79,63.91 -104.63,63.91l-130.51 0c-85.49,0 -34.16,-65.99 -110.8,-63.98 -84.87,2.23 -0.75,67.35 -129.44,63.21l-0.15 -381.79z"/>
   <path class="fil1" d="M961.78 2652.82c22.61,16.43 271.58,16.46 310.76,9.78 46.9,-7.99 29.5,-89.12 29.5,-124.62 -0,-124.8 11.34,-767.95 -10.02,-789.56 -15.73,-15.92 -268.21,-13.5 -305.72,-9.98 -51.33,4.82 -34.56,75.27 -34.55,120.92 0,132.56 -11.69,762.83 10.04,793.46z"/>
   <path class="fil1" d="M957.56 1585.63c21.81,31.34 100.88,16.7 138.68,16.7 249.59,0 205.81,50.41 205.81,-271.5 0,-71.38 5.23,-613.55 -2.76,-634.15 -12.21,-31.47 -104.96,-19.72 -137.79,-19.72 -256.03,0 -209.74,-50.22 -209.74,275.41 0,81.14 -8.68,601.97 5.81,633.27z"/>
   <path class="fil1" d="M2383.24 1585.43c13.59,-28.68 5.88,-659.09 5.89,-789.68 0.01,-137.91 27.82,-118.81 -203.19,-118.81 -32.4,0 -132.49,-12.02 -144.4,19.66 -7.84,20.86 -2.67,665.14 -2.68,790.82 -0.01,135.03 -23.74,114.9 199.28,114.9 38.85,0 122.87,15.38 145.1,-16.89z"/>
   <path class="fil1" d="M2052.21 2658.44c37.74,10.28 302.78,12.04 326.8,-5.73 20.23,-20.58 9.92,-699.88 10.13,-819.44 0.19,-111.91 20.07,-94.88 -183.62,-94.88 -178.89,0 -166.73,-19.92 -166.65,101.4l0 554.64c0,50.05 -12.13,233.66 13.35,264.01z"/>
   <path class="fil1" d="M1364.82 2388.66l63.21 -1.58c25.58,-35.68 27.09,-71.76 85.1,-58.84 93.47,20.81 -71.41,80.5 262.21,59.38 23.61,-29.82 15.84,-58.59 64.79,-61.19 76.26,-4.05 31.53,60.95 104.27,64.5l31.69 -1.82 -0.02 -380.75 -64.04 0.3c-23.04,35.18 -24.63,73.35 -84.02,59.91 -64.72,-14.65 -5.76,-61.8 -92.32,-61.8l-130.51 0c-84.61,0 -28.89,41.6 -86.85,60.2 -61.29,19.67 -66.59,-22.81 -89.57,-56.22l-63.98 -2.88 0.02 380.79z"/>
   <path class="fil1" d="M1364.96 1328.34c128.7,4.15 44.57,-60.97 129.44,-63.21 76.64,-2.01 25.31,63.98 110.8,63.98l130.51 0c83.85,0 34.25,-60.22 104.63,-63.91 89.91,-4.71 4.68,65.66 134.32,63.39l1.49 -381.71c-128.36,-6.85 -44.86,60.12 -129.86,62.98 -71.4,2.4 -32.57,-64.1 -104.06,-64.1l-143.55 0c-70.62,-0 -32.52,61.17 -98.44,64.12 -91.17,4.08 -2.73,-66.63 -135.43,-63.34l0.15 381.79z"/>
   <path class="fil1" d="M672.89 2452.02c33.33,20.53 168.28,9.89 216.07,9.89l-0.16 -522.53c-59.18,0 -128.64,-3.62 -184.24,-0.16 -55.74,3.47 -40.16,45.37 -40.16,148.53 0,58.52 -9.47,331.37 8.49,364.27z"/>
   <path class="fil1" d="M2452.05 1400.89c49.68,0 188.63,14.81 219.35,-15.24 11.18,-32.76 10.08,-472.59 -3.43,-497.39 -33.12,-20.53 -168.44,-9.91 -216.07,-9.91l0.15 522.53z"/>
   <path class="fil1" d="M669.38 1385.81c31.03,29.9 169.65,15.08 217.41,15.08l2.24 -522.53c-56.51,0 -130.66,-4.24 -184.86,-0.17 -62.06,4.66 -39.77,100.12 -39.77,145.95 0,63.97 -8.32,321.89 4.99,361.67z"/>
   <path class="fil1" d="M2451.83 2461.91c47.73,0 183.03,10.63 216.11,-9.96 13.56,-24.77 14.66,-464.31 3.54,-497.42 -30.75,-29.95 -169.77,-15.15 -217.39,-15.15l-2.26 522.53z"/>
  </g>
 </g>
</svg>
