<?xml version="1.0" encoding="UTF-8"?>
<!DOCTYPE svg PUBLIC "-//W3C//DTD SVG 1.1//EN" "http://www.w3.org/Graphics/SVG/1.1/DTD/svg11.dtd">
<!-- Creator: CorelDRAW (Evaluation Version) -->
<svg xmlns="http://www.w3.org/2000/svg" xml:space="preserve" width="70.8382mm" height="10.7546mm" version="1.1" style="shape-rendering:geometricPrecision; text-rendering:geometricPrecision; image-rendering:optimizeQuality; fill-rule:evenodd; clip-rule:evenodd"
viewBox="0 0 6643.31 1008.58"
 xmlns:xlink="http://www.w3.org/1999/xlink"
 xmlns:xodm="http://www.corel.com/coreldraw/odm/2003">
 <defs>
  <style type="text/css">
   <![CDATA[
    .str0 {stroke:#FFBE40;stroke-width:7.15;stroke-miterlimit:22.9256}
    .fil0 {fill:#D7385E}
    .fil1 {fill:#FFBE40}
   ]]>
  </style>
 </defs>
 <g id="Layer_x0020_1">
  <metadata id="CorelCorpID_0Corel-Layer"/>
  <g id="_1900127684800">
   <g id="_2867901543328">
    <path class="fil0" d="M708.61 360.26c-0.47,-49 35.77,-106.27 63.96,-132.15 117.95,-108.25 352.51,-46.16 345.6,133.03l-409.56 -0.88zm649.71 359.1l-172.26 -99.87c-42.71,37.48 -46.96,62.63 -111.2,93.46 -149.15,71.59 -364.34,-0.73 -376.55,-193.05l649.65 -0.27c37.01,394.14 406.76,519.04 665.25,369.79 59.95,-34.61 160.14,-130.29 173.32,-217.7l-175.09 -96.74c-47.21,100.18 -105.79,193.9 -262.81,168.54 -112.17,-18.11 -175.09,-127.88 -179.31,-254.24 -11.41,-341.69 333.74,-386.76 420.1,-148.02 61.78,-14.9 130,-60.09 188.91,-81.42 -18.75,-139.46 -238.96,-289.27 -465.35,-251.15 -103.27,17.4 -183.35,69.6 -234.41,123.7 -28.43,30.13 -49.63,57.18 -75.55,107.32 -23.18,44.84 -30.4,96.06 -52.06,132.38 -17.17,-26.77 -21.94,-87.31 -55.58,-153.48 -24.43,-48.05 -56.47,-90 -88,-117.97 -81.26,-72.07 -186.98,-103.7 -317.2,-97.9 -242.64,10.83 -399.83,178.02 -418.87,407.96 -44.13,533.17 495.18,666 788.02,423.55 28.31,-23.44 93.28,-77.03 98.99,-114.89z"/>
    <path class="fil0" d="M4451.15 364.14c15.2,-208.79 347.25,-231.84 363.02,-0.08l-363.02 0.08zm573.48 315.52c-42.58,-22.67 -99.45,-64.15 -148.24,-82.33 -41.79,24.66 -90.89,125.23 -260.6,98.33 -87.57,-13.89 -177.42,-94.22 -169.43,-190.07l578.25 -0.99c13.66,-224.96 -111.49,-428.47 -314.98,-451.23 -244.57,-27.36 -409.98,81.74 -458.91,296.08 -52.94,231.89 58.65,448.34 239.26,510.14 107.49,36.78 225.26,34.64 324.51,-2.96 62.3,-23.6 204.95,-113.3 210.14,-176.97z"/>
    <path class="fil0" d="M3797.95 860.47c50.39,6.59 160.75,11.39 200.53,-2.34 18.8,-13.65 171.93,-496.9 200.07,-586.82 16.54,-52.85 57.12,-150.29 63.32,-199.08l-195.38 -2.53 -156.96 530.32 -16.72 -24.74c-38.1,-95.39 -113.57,-415.05 -153.71,-504.06l-189.5 -1.96c-0.38,42.12 102.26,340.71 120.95,395.87 40.25,118.76 96.22,267.63 127.4,395.34z"/>
    <path class="fil0" d="M208.62 139.88l-1.72 -110.36 -205.08 -1.29 -1.82 895.24c84.07,2.11 197.36,20.94 205.79,-22.96l1.76 -220.85c0,-76.89 -5.66,-168.54 5.45,-239.85 28.27,-181.4 159.99,-195.85 278.62,-213.68l0.44 -213.69c-181.06,-27.32 -260.09,115.22 -283.45,127.44z"/>
    <path class="fil0" d="M5264.74 849.45c-4.52,-118.14 -3.21,-249.81 -0.21,-368.56 2.19,-86.72 34.6,-174.39 116.63,-208.68 1.79,-0.75 4.27,-1.61 5.97,-2.22 1.83,-0.65 5.05,-1.25 6.59,-1.72 19.67,-6 -6.31,-1.09 14.59,-2.27 34.66,-18.52 63.22,-13.3 105.68,-20.25l1.76 -184.24c-5.64,-1.22 -8.54,-4.59 -9.58,-2.79l-26.4 -6.15c-114.53,-5.54 -192.96,97.25 -215.05,111.98l-2.12 -92.85 -183.5 -1.71 -0.76 788.7 163.28 4.92c33.54,-6.3 13.54,2.4 23.11,-14.16z"/>
    <path class="fil1" d="M2888 457.33c13.5,23.39 97.33,102.12 122.46,118.23 18.72,-7.46 172,-133.27 305.97,4.58 137.48,141.44 4.92,284.2 -3.79,305.96 16.48,21.55 37.44,43.48 55.72,62.96 9.02,9.59 17.37,18.52 26.68,28.69l36.23 30.84c110.4,-60.19 212.71,-355.59 17.67,-553.04 -112.01,-113.4 -286.9,-155.97 -446.22,-84.96 -24.81,11.06 -81.24,44.55 -100.59,66.39 -17.18,19.38 -4.16,0.89 -14.13,20.36z"/>
    <path class="fil1" d="M3041.9 711.43c-33.87,-17.63 -124.79,-62.67 -158.48,-63.32 -38.49,48.74 -46.13,73.25 -108.13,98.61 -108.63,44.42 -238.04,-4.33 -280.34,-115.44 -30.15,-79.18 -9.26,-105.52 5.66,-173.95 -20.32,-19.26 -132.73,-79.12 -157.11,-83.6 -99.25,161.71 -38.01,422.88 172.75,529.85 258.25,131.07 521.63,-84.37 525.66,-192.16z"/>
    <path class="fil1" d="M2692.85 654.32c23.72,-9.83 114.23,-101.38 127.97,-117.58 -9.18,-27.82 -122.9,-174.17 14.75,-301.85 144.44,-133.98 301.83,11.56 301.93,11.57 19.23,3 125.84,-91.04 136.95,-106.72 -41.32,-102.22 -350.46,-232.36 -553.78,-43.62 -186.69,173.32 -161.85,435.44 -27.82,558.21z"/>
    <polygon class="fil1" points="6074.53,416.87 6263.28,419.48 6265.35,848.63 6450.96,849.8 6451.94,422.48 6643.31,417.31 6642.22,272.73 6077.3,269.25 "/>
    <path class="fil1" d="M5264.74 849.45l146.45 0.22 1.89 -204.13 242.29 -3.67 -0.52 -132.67 -240.63 -1.41 0.02 -97.88 278.86 -0.48 1.89 -139.03 -286.66 -4.4c-20.9,1.18 5.07,-3.73 -14.59,2.27 -1.55,0.47 -4.76,1.07 -6.59,1.72 -1.71,0.61 -4.18,1.47 -5.97,2.22 -82.03,34.3 -114.43,121.96 -116.63,208.68 -3,118.76 -4.31,250.42 0.21,368.56z"/>
    <polygon class="fil1" points="5797.96,850.38 5982.56,850.87 5984.54,271.62 5800.16,269.34 "/>
    <path class="fil1 str0" d="M2421.15 224.02c-85.76,38.08 -25.08,158.59 60.38,117.58 70.65,-33.89 25.95,-155.91 -60.38,-117.58z"/>
   </g>
  </g>
 </g>
</svg>
