<?xml version="1.0" encoding="UTF-8"?>
<!DOCTYPE svg PUBLIC "-//W3C//DTD SVG 1.1//EN" "http://www.w3.org/Graphics/SVG/1.1/DTD/svg11.dtd">
<!-- Creator: CorelDRAW (Evaluation Version) -->
<svg xmlns="http://www.w3.org/2000/svg" xml:space="preserve" width="74.42mm" height="74.42mm" version="1.1" style="shape-rendering:geometricPrecision; text-rendering:geometricPrecision; image-rendering:optimizeQuality; fill-rule:evenodd; clip-rule:evenodd"
viewBox="0 0 12481.94 12481.94"
 xmlns:xlink="http://www.w3.org/1999/xlink"
 xmlns:xodm="http://www.corel.com/coreldraw/odm/2003">
 <defs>
  <style type="text/css">
   <![CDATA[
    .fil0 {fill:#D8385E}
    .fil2 {fill:#E88BA1}
    .fil1 {fill:#FDFFFF}
   ]]>
  </style>
 </defs>
 <g id="Layer_x0020_1">
  <metadata id="CorelCorpID_0Corel-Layer"/>
  <g id="_1380769283296">
   <path class="fil0" d="M6039.75 6143.46c4.96,-315.52 200.18,-371.22 374.29,-557.85 179.01,-191.88 297.26,-300.12 508.32,-465.01 215,-167.96 867.36,-653.87 1201.85,-671.45 4.03,310.27 182.83,521.79 317.08,761.11 422.58,753.34 682.58,698.8 1064.07,3.98 132.37,-241.05 317.05,-450.82 319.48,-789.51 1042.28,128.46 815.96,1115.44 811.56,2597.31 -1.31,441.14 -114.61,574.7 -549.71,578.12 -19.66,-418.18 92.18,-1646.75 -66.82,-1920.09 -317.83,-39.28 -207.39,417.03 -207.39,1097.24l0 2730.41c0.22,591.78 108.11,901.81 -523.98,883.77 -112.51,-121.35 -184.76,-125.19 -209.89,-351.68 -30.26,-272.89 118.23,-1782.89 -180.54,-1543.79 -58.33,46.69 -78.59,-18.1 -89.66,227.85 -29.79,661.9 212.92,1971.08 -544.56,1637.03 -273.32,-120.53 -188.49,-741.08 -188.49,-1096.96l0.94 -3219.81c4.58,-775 -436.97,-220.37 -1563.48,178.19 -278.59,98.57 -299.74,116.22 -473.06,-78.86zm-3563.19 -1610.49c41.46,-24.47 -10.55,-15.11 107.69,-45.05 53.74,-13.62 35.91,-1.49 97.93,2.45l-8.82 214.35c39.25,169.22 257.72,504.9 347.52,659.6 122.32,210.69 224.73,517.54 579.48,435.12 224.98,-52.26 467.58,-564.91 645.57,-869.39 97.08,-166.11 83.49,-250.93 142.25,-407.92 450.24,63.72 1443.47,842.81 1606.01,1085 -91.38,157.64 -223.69,274.06 -234.68,542.45 -351.09,-84.16 -963.85,-466.61 -1310.37,-383.97 -166.7,495.03 73.53,4213.94 -101.37,4530.55 -104.47,189.16 -422.71,268.17 -599.34,48.32 -244.71,-304.57 62.16,-1385.19 -128.16,-1775.36 -313.83,-117.42 -213.33,399.1 -213.28,694.83 0.03,205.02 24.59,793.21 -19.07,955.58 -73.28,272.6 -401.46,326.71 -597.51,155.01 -193.38,-169.33 -120.96,-592.68 -120.96,-866.81l1.64 -3415.32c0.96,-244.04 32.12,-306.28 -184.48,-335.92 -193.55,215.98 -85.3,1544.21 -85.3,1922.64 -482.29,-34.43 -556.94,-68.23 -554.76,-755.54 3.54,-1110.34 -203.25,-2248.68 630,-2390.62zm972.89 1019.37c-92.42,-87.05 -312.55,-514.36 -417.86,-684.61 -302.76,-489.53 100.8,-362.99 527.74,-363.74 725.22,-1.31 640.06,-63.43 191.77,761.03 -119.22,219.28 -79.45,247.24 -301.65,287.33zm5521.92 -79.28c-185.72,-100.72 -334.96,-456.69 -445.52,-638.07 -320.92,-526.42 -52.77,-410.25 445.52,-410.25 768.34,0 719.06,-99.91 269.3,723.2 -97.2,177.85 -86.51,245.13 -269.3,325.11zm-5722.74 -3351.91c1315.08,-351.33 1763.44,1622.1 503.79,1924.22 -577.6,138.54 -1074.15,-203.68 -1206.01,-693.48 -171.35,-636.46 243.47,-1108.18 702.22,-1230.73zm5522.55 -95.37c1238.67,-290.71 1711.73,1620 466.64,1942.72 -1297.76,336.37 -1815.43,-1626.17 -466.64,-1942.72zm-8771.19 3922.65c0,1137.82 99.19,2004.51 584.75,2974.57 1009.56,2016.99 3088.47,3558.95 5363.68,3558.95 1137.82,0 2004.51,-99.19 2974.57,-584.75 662.62,-331.64 1237.36,-725.92 1742.81,-1231.39 1002.45,-1002.43 1816.14,-2600.78 1816.14,-4132.29 0,-1137.82 -99.19,-2004.51 -584.75,-2974.57 -331.64,-662.62 -725.92,-1237.36 -1231.39,-1742.81 -1002.43,-1002.45 -2600.78,-1816.14 -4132.29,-1816.14 -1137.82,0 -2004.51,99.19 -2974.57,584.75 -2016.99,1009.56 -3558.95,3088.47 -3558.95,5363.68z"/>
   <path class="fil1" d="M6039.75 6143.46c173.32,195.08 194.47,177.43 473.06,78.86 1126.51,-398.56 1568.06,-953.19 1563.48,-178.19l-0.94 3219.81c0,355.87 -84.83,976.43 188.49,1096.96 757.49,334.05 514.78,-975.12 544.56,-1637.03 11.07,-245.95 31.33,-181.16 89.66,-227.85 298.76,-239.11 150.28,1270.9 180.54,1543.79 25.12,226.49 97.38,230.33 209.89,351.68 632.1,18.05 524.2,-291.99 523.98,-883.77l0 -2730.41c0,-680.22 -110.45,-1136.52 207.39,-1097.24 159,273.34 47.16,1501.91 66.82,1920.09 435.11,-3.42 548.4,-136.98 549.71,-578.12 4.39,-1481.87 230.72,-2468.85 -811.56,-2597.31 -2.43,338.68 -187.11,548.45 -319.48,789.51 -381.49,694.83 -641.49,749.37 -1064.07,-3.98 -134.25,-239.32 -313.05,-450.84 -317.08,-761.11 -334.49,17.58 -986.85,503.49 -1201.85,671.45 -211.06,164.89 -329.31,273.14 -508.32,465.01 -174.11,186.63 -369.33,242.33 -374.29,557.85z"/>
   <path class="fil1" d="M2673.37 4704.71l-33.68 -177.57 -163.13 5.82c-833.25,141.94 -626.46,1280.28 -630,2390.62 -2.18,687.31 72.47,721.11 554.76,755.54 0,-378.43 -108.25,-1706.66 85.3,-1922.64 216.6,29.64 185.43,91.88 184.48,335.92l-1.64 3415.32c0,274.13 -72.42,697.48 120.96,866.81 196.05,171.7 524.23,117.59 597.51,-155.01 43.66,-162.37 19.1,-750.56 19.07,-955.58 -0.05,-295.73 -100.55,-812.25 213.28,-694.83 190.32,390.17 -116.55,1470.8 128.16,1775.36 176.63,219.85 494.87,140.84 599.34,-48.32 174.9,-316.61 -65.33,-4035.51 101.37,-4530.55 346.52,-82.64 959.27,299.8 1310.37,383.97 10.99,-268.39 143.3,-384.81 234.68,-542.45 -162.54,-242.19 -1155.78,-1021.28 -1606.01,-1085 -58.75,156.99 -45.17,241.81 -142.25,407.92 -177.99,304.48 -420.58,817.13 -645.57,869.39 -354.75,82.42 -457.16,-224.43 -579.48,-435.12 -89.8,-154.71 -308.27,-490.39 -347.52,-659.6z"/>
   <path class="fil1" d="M8771.19 2025.77c-1348.79,316.54 -831.12,2279.09 466.64,1942.72 1245.09,-322.72 772.03,-2233.43 -466.64,-1942.72z"/>
   <path class="fil1" d="M3248.64 2121.14c-458.76,122.56 -873.57,594.28 -702.22,1230.73 131.86,489.8 628.41,832.02 1206.01,693.48 1259.65,-302.12 811.29,-2275.55 -503.79,-1924.22z"/>
   <path class="fil1" d="M8525.86 4834.98c110.56,181.38 259.8,537.35 445.52,638.07 182.78,-79.99 172.1,-147.26 269.3,-325.11 449.77,-823.12 499.04,-723.2 -269.3,-723.2 -498.29,0 -766.44,-116.16 -445.52,410.25z"/>
   <path class="fil1" d="M3031.59 4867.72c105.31,170.26 325.45,597.56 417.86,684.61 222.2,-40.09 182.43,-68.05 301.65,-287.33 448.29,-824.46 533.44,-762.33 -191.77,-761.03 -426.94,0.75 -830.5,-125.79 -527.74,363.74z"/>
   <path class="fil2" d="M2673.37 4704.71l8.82 -214.35c-62.02,-3.94 -44.19,-16.07 -97.93,-2.45 -118.24,29.94 -66.23,20.58 -107.69,45.05l163.13 -5.82 33.68 177.57z"/>
  </g>
 </g>
</svg>
