<?xml version="1.0" encoding="UTF-8"?>
<!DOCTYPE svg PUBLIC "-//W3C//DTD SVG 1.1//EN" "http://www.w3.org/Graphics/SVG/1.1/DTD/svg11.dtd">
<!-- Creator: CorelDRAW (Evaluation Version) -->
<svg xmlns="http://www.w3.org/2000/svg" xml:space="preserve" width="9.592mm" height="9.592mm" version="1.1" style="shape-rendering:geometricPrecision; text-rendering:geometricPrecision; image-rendering:optimizeQuality; fill-rule:evenodd; clip-rule:evenodd"
viewBox="0 0 343.47 343.47"
 xmlns:xlink="http://www.w3.org/1999/xlink"
 xmlns:xodm="http://www.corel.com/coreldraw/odm/2003">
 <defs>
  <style type="text/css">
   <![CDATA[
    .fil1 {fill:#9C21B1}
    .fil0 {fill:#B02EB5}
   ]]>
  </style>
 </defs>
 <g id="Layer_x0020_1">
  <metadata id="CorelCorpID_0Corel-Layer"/>
  <g id="_1379738709632">
   <path class="fil0" d="M149.44 241.92c0,9 -3.49,16.14 -8.03,20.87 -12,12.48 -23.64,9.68 -42.34,9.68 -14.1,0 -28.07,-13.98 -28.07,-28.07l0 -56.97c0,-4.45 1.41,-8.63 3,-11.86 8.75,-17.79 25.96,-17.03 41.59,-17.03 19.3,0 33.85,12.34 33.85,31.38l0 13.21 44.59 0c0,-16.52 -1.76,-24.37 10.09,-36.14 9.81,-9.73 22.16,-8.44 36.14,-8.44 9.84,0 16.87,3.62 22.43,8.11 5.27,4.26 9.77,13.2 9.77,20.78l0 56.97c0,14.1 -13.98,28.07 -28.07,28.07 -18.7,0 -30.34,2.8 -42.34,-9.68 -9.44,-9.82 -8.03,-20.85 -8.03,-34.08l-44.59 0 0 13.21zm-52.01 -215.49l148.62 0 0 61.1 -148.62 0 0 -61.1zm-97.43 -14.87c0,9.14 5.57,14.87 11.56,14.87l58.63 0 0 61.1 -34.68 0c-10.81,0 -17.95,2.38 -24.09,7.28 -4.67,3.74 -11.42,12.84 -11.42,20.78l0 198.99c0,14.66 14.23,28.9 28.9,28.9l285.68 0c14.66,0 28.9,-14.23 28.9,-28.9l0 -197.34c0,-17.35 -15.23,-29.72 -35.5,-29.72l-34.68 0 0 -61.1 58.63 0c5.98,0 11.56,-5.73 11.56,-14.87 0,-5.15 -6.4,-11.56 -11.56,-11.56l-320.36 0c-5.15,0 -11.56,6.4 -11.56,11.56z"/>
   <path class="fil1" d="M96.6 189.07l0 52.02c0,7.94 8.69,5.78 21.46,5.78 2.23,0 2.28,-0.39 4.13,-0.82 3.28,-6.84 1.65,-45.29 1.65,-55.32 0,-8.17 -7.66,-5.78 -23.12,-5.78 -1.93,0 -4.13,2.2 -4.13,4.13z"/>
   <path class="fil0" d="M219.62 190.73c0,10.03 -1.63,48.48 1.65,55.32 6.35,1.48 12.21,0.82 19.82,0.82 3.86,0 5.78,-1.92 5.78,-5.78l0 -52.02c0,-6.24 -13.06,-4.13 -23.12,-4.13 -2.66,0 -4.13,3 -4.13,5.78z"/>
  </g>
 </g>
</svg>
